<?xml version="1.0" standalone="no"?>
<!DOCTYPE svg PUBLIC "-//W3C//DTD SVG 20010904//EN"
 "http://www.w3.org/TR/2001/REC-SVG-20010904/DTD/svg10.dtd">
<svg version="1.0" xmlns="http://www.w3.org/2000/svg"
 width="700.000000pt" height="700.000000pt" viewBox="0 0 700.000000 700.000000"
 preserveAspectRatio="xMidYMid meet">
<metadata>
Created by potrace 1.14, written by Peter Selinger 2001-2017
</metadata>
<g transform="translate(0.000000,700.000000) scale(0.100000,-0.100000)"
fill="#000000" stroke="none">
<path d="M2055 5933 c-31 -4 -170 -28 -216 -37 -71 -15 -196 -63 -304 -115
-388 -190 -647 -511 -745 -923 -32 -137 -35 -162 -35 -363 0 -234 8 -297 62
-490 102 -363 325 -712 685 -1075 255 -256 377 -362 868 -750 541 -428 680
-547 835 -712 132 -140 201 -229 263 -340 15 -27 29 -48 32 -48 3 0 29 40 58
88 29 48 74 114 100 147 55 71 288 307 387 391 38 32 84 72 101 87 17 15 157
127 310 248 303 239 298 235 459 366 301 243 576 499 738 687 29 33 59 67 68
76 9 10 36 44 60 76 24 33 46 61 49 64 3 3 19 25 35 50 16 25 33 47 36 50 10
9 97 156 137 232 74 143 152 353 177 483 3 17 8 41 10 55 21 102 28 445 12
545 -18 109 -63 282 -79 299 -4 6 -8 16 -8 23 0 22 -85 188 -131 256 -138 204
-321 364 -546 476 -78 39 -291 115 -348 125 -16 2 -57 10 -90 17 -64 12 -359
17 -435 7 -194 -27 -403 -106 -558 -209 -97 -65 -91 -61 -191 -159 -132 -131
-238 -304 -312 -507 -18 -51 -36 -93 -40 -93 -4 0 -21 41 -39 92 -160 460
-497 758 -968 858 -95 20 -346 33 -437 23z"/>
</g>
</svg>
